<svg width="51" height="64" viewBox="0 0 51 64" fill="none" xmlns="http://www.w3.org/2000/svg">
<path d="M23.3769 0H33.8529V48.44C28.4849 49.46 24.5529 49.867 20.2529 49.867C7.47687 49.867 0.817871 44.091 0.817871 33.014C0.817871 22.344 7.88587 15.414 18.8259 15.414C20.5259 15.414 21.8259 15.549 23.3789 15.957L23.3769 0ZM23.3769 24.383C22.1539 23.976 21.1349 23.84 19.8439 23.84C14.5439 23.84 11.4839 27.102 11.4839 32.81C11.4839 38.383 14.4059 41.44 19.7839 41.44C20.9389 41.44 21.8899 41.372 23.3839 41.17L23.3769 24.383ZM50.4899 16.16V40.42C50.4899 48.78 49.8779 52.788 48.0439 56.253C46.3439 59.583 44.1019 61.689 39.4819 64L29.7639 59.38C34.3839 57.206 36.6269 55.304 38.0639 52.38C39.5589 49.38 40.0339 45.924 40.0339 36.82V16.16H50.4899ZM40.0249 0.056H50.4899V10.793H40.0249V0.056Z" fill="#119966"/>
</svg>
