<svg width="111" height="64" viewBox="0 0 111 64" fill="none" xmlns="http://www.w3.org/2000/svg">
<path d="M110.818 62.3403C106.805 63.3607 104.323 62.3851 102.096 59.0412L86.2594 37.13L83.9704 34.0964L65.4755 59.1136C63.3623 62.1231 61.1457 63.4331 57.2019 62.3678L80.885 30.5767L58.836 1.86053C62.628 1.12281 65.248 1.49856 67.5749 4.89417L84.0014 27.0777L100.549 5.01483C102.669 2.00532 104.947 0.860812 108.753 1.97085L100.204 13.3056L88.6208 28.3876C87.2419 30.1113 87.4315 31.2903 88.7001 32.9553L110.818 62.3403ZM0.531485 30.0458L2.46888 20.5174C7.74327 1.66059 29.358 -6.17516 44.2642 5.47677C52.9755 12.33 55.1404 22.0239 54.7095 32.8829H5.60594C4.86821 52.4292 18.9367 64.226 36.8731 58.2069C43.1645 56.0937 46.8703 51.1675 48.725 45.0037C49.6661 41.9149 51.2243 41.4323 54.1269 42.3148C52.6446 50.023 49.3007 56.4626 42.2337 60.4925C31.6746 66.5253 16.6029 64.5741 8.67405 56.1903C3.95122 51.3261 2.00004 45.1623 1.12442 38.571C0.986531 37.4817 0.710745 36.444 0.503906 35.3995C0.522292 33.6161 0.531485 31.8327 0.531485 30.0493V30.0458ZM5.69557 28.7358H50.0694C49.7799 14.6018 40.9789 4.56323 28.9512 4.47705C15.7479 4.37363 6.26782 14.1744 5.69557 28.7358Z" fill="white"/>
</svg>
