<svg width="65" height="58" viewBox="0 0 65 58" fill="none" xmlns="http://www.w3.org/2000/svg">
<path d="M19.8687 50.8386C17.4287 48.9186 14.8287 47.0826 13.0527 44.4946C9.31272 39.9286 6.43272 34.6446 4.46472 29.0886C3.27472 25.4766 2.86472 21.6026 1.33272 18.1286C-0.271278 15.6086 1.60872 12.8486 4.37272 12.0486C5.60272 11.8126 7.76472 10.6486 5.15272 11.4806C2.81272 13.1966 2.58672 9.92065 4.98672 9.71265C6.62672 9.49265 7.22672 8.15265 6.66672 6.94865C4.90672 5.80065 10.9307 4.54265 7.89872 2.82865C4.74272 -0.571355 12.3147 -1.22735 10.4467 2.64065C10.0027 5.61265 15.7387 2.09265 14.4067 5.52865C15.7607 7.17865 19.4747 5.90465 19.3807 8.21865C21.3527 8.35465 22.0287 10.0126 23.8807 10.1386C25.8007 11.0046 29.2747 11.6866 29.9267 13.8486C28.0267 15.3546 23.6207 10.7386 23.4067 14.9086C23.9827 21.0686 23.8347 27.4126 26.0867 33.2786C27.1527 36.8286 29.7367 39.6246 32.0667 42.3906C34.3007 45.0986 37.3267 47.0066 40.4067 48.6106C43.1107 49.8866 46.0267 50.7306 48.9727 51.2626C50.1667 50.3486 52.2787 46.9506 54.1407 48.3826C54.2307 49.9946 50.4407 51.7506 53.9607 51.5726C56.0307 50.9486 57.4647 53.1726 59.1667 51.1646C60.7367 53.0246 65.6867 49.9786 64.5727 53.7766C63.0627 54.7506 60.8607 54.1626 59.3487 55.5026C56.8547 54.2566 54.8687 56.6166 52.1087 56.3186C49.0427 56.8686 45.9247 57.0886 42.8167 57.0926C37.7167 56.6926 32.5107 56.5206 27.6607 54.7446C24.9267 53.9506 22.2607 52.3946 19.8607 50.8366L19.8687 50.8386ZM24.1747 52.7046C26.8427 53.8566 29.4547 55.0726 32.3747 55.4406C37.0147 56.0846 41.8047 57.0806 46.4607 56.1726C44.3527 55.2206 42.1747 56.5426 40.0747 55.4926C37.5547 56.0326 34.8747 55.3526 32.2747 55.0186C29.3647 53.7226 26.2227 52.8306 23.4987 51.1466C20.0927 49.9026 25.2587 52.7426 26.1787 52.9726C28.3067 54.1806 23.8387 52.3726 23.2067 51.8526C21.4227 50.8526 21.1967 51.0606 23.0307 52.0766L24.1507 52.7046H24.1747ZM19.0947 49.1166C21.6807 50.0766 19.0827 47.2966 17.9007 47.4566C17.3767 46.5466 15.8947 45.9706 16.9407 45.4826C15.0607 46.1346 14.9727 43.0026 14.0907 43.4506C12.1027 42.8226 13.3167 40.5986 10.9507 39.2306C10.7347 37.7906 8.59872 36.5446 7.91872 34.3746C7.61872 33.2626 5.50472 30.0746 6.80272 33.0426C7.90672 35.9026 9.85072 38.3486 11.4707 40.7926C12.7267 43.1206 14.2107 45.5526 16.4987 47.0066C17.2707 47.7466 18.0147 48.8806 19.1027 49.1126L19.0947 49.1166ZM11.6467 40.9366C12.1187 41.7806 11.7367 40.5466 11.6467 40.9366ZM22.1927 50.2626C22.7647 50.0066 21.3687 49.9386 22.1927 50.2626ZM23.5927 50.7746C23.4467 50.0686 22.9527 51.1706 23.5927 50.7746ZM25.3527 51.5066C26.1887 50.7106 24.0627 51.0066 25.3527 51.5066ZM28.3647 53.1866C28.8727 52.4366 26.7387 52.9066 28.3647 53.1866ZM22.5847 49.1566C23.8847 48.3166 20.9047 49.1446 22.5847 49.1566ZM23.9047 49.8166C23.8647 49.3726 23.4347 50.0166 23.9047 49.8166ZM30.4907 53.9286C31.5507 54.5966 36.6747 55.3926 33.4667 54.2026C32.9267 54.3146 27.5167 52.6706 30.4907 53.9286ZM20.0347 45.7846C19.9347 45.3406 18.3907 45.2926 20.0347 45.7846ZM23.1007 47.5726C23.9007 47.0126 21.4447 47.1426 23.1007 47.5726ZM25.7007 49.1726C26.8467 48.7406 23.8447 48.7386 25.7007 49.1726ZM18.7827 44.4226C20.0227 45.3746 23.7947 44.5426 20.6827 43.8546C19.2687 43.1006 16.0827 42.5846 18.2547 44.3086L18.7807 44.4226H18.7827ZM27.4227 49.6966C27.9427 48.8166 25.2507 49.1926 27.4227 49.6966ZM24.7967 47.6106C27.8367 48.4706 22.2427 45.6906 24.0467 47.2906L24.4467 47.4706L24.7967 47.6066V47.6106ZM30.0607 50.6506C32.9407 50.6786 27.4607 50.2506 30.0607 50.6506ZM17.6747 42.7566C17.5627 42.2206 16.9647 42.8006 17.6747 42.7566ZM34.9287 53.3806C35.0047 52.4126 33.9887 54.1006 34.9287 53.3806ZM22.5887 45.7606C22.4147 45.2506 21.6887 45.7406 22.5887 45.7606ZM17.9487 42.4206C19.6007 42.3206 15.6887 41.6926 17.9487 42.4206ZM12.4547 38.8726C12.2487 38.0806 10.6587 37.4486 12.4547 38.8726ZM26.8787 48.0266C26.7387 48.1006 26.5787 47.6806 26.8787 48.0266ZM35.8547 53.5366C35.8267 53.0086 35.3667 53.7366 35.8547 53.5366ZM26.0847 47.2066C26.2447 46.5266 24.6747 47.0006 26.0847 47.2066ZM19.3967 42.9666C20.6267 42.8366 17.4267 42.1366 19.3967 42.9666ZM30.7087 49.9966C32.6247 49.2366 28.8427 49.6266 30.7087 49.9966ZM24.8247 46.0026C27.0307 46.2866 22.1987 44.5026 24.3387 45.8426L24.8247 46.0026ZM32.4947 50.7186C34.5547 49.4886 33.8747 53.6046 35.9907 51.0666C38.0767 49.5426 34.1907 52.9506 36.7587 51.3386C38.6187 50.0946 41.3647 51.9286 43.0987 52.5246C44.3467 52.4646 45.5587 53.6046 46.8387 52.9106C49.2987 52.2466 42.0227 51.9266 43.9307 50.7506C41.6787 51.4066 40.0147 49.9706 38.9047 48.5266C36.3767 47.9426 33.4567 46.6506 32.1947 44.4146C31.6807 43.5746 32.9347 44.5346 31.7507 43.1606C30.2307 41.8066 29.4707 40.2686 28.4467 38.6206C27.2267 37.9706 27.0807 36.0526 26.9587 38.5566C26.9687 36.9766 25.4847 35.9106 25.1187 36.3526C25.1127 34.8326 26.7087 35.5926 25.5907 34.4686C25.3507 32.8886 24.5587 31.2486 24.3227 29.4646C23.9527 28.6046 24.2707 26.7646 23.0627 28.7106C22.6227 30.7646 22.9167 26.1866 23.6027 27.6946C24.5027 26.1546 23.2787 26.3346 23.2307 26.5486C23.8167 25.2486 23.6027 23.4046 23.0767 24.1086C23.3887 22.7286 23.5707 19.0386 22.6107 19.6926C23.1907 18.2526 23.7147 13.0986 21.1867 15.0626C20.1627 15.0766 18.3907 15.4346 17.5527 15.8506C20.1787 17.2986 17.2887 16.3746 16.2167 16.1426C16.0767 17.4826 15.0167 16.9026 13.6967 16.9166C15.8127 17.1766 12.6667 19.0766 11.4567 18.3406C9.88072 19.0926 12.8167 20.9726 11.4867 21.5546C11.6507 22.4286 9.07272 21.2386 9.27472 23.2626C7.74672 22.6186 9.06472 25.6626 9.83072 24.6326C12.4307 25.3366 11.6607 26.9406 11.7267 28.4666C11.3027 29.3546 9.63472 26.3786 11.3547 26.5166C9.99472 24.3106 9.85472 25.7166 8.72472 26.7446C8.46472 26.8186 11.6047 28.2046 9.63272 28.8846C11.3667 29.1526 11.4167 30.6706 11.7687 31.6286C12.8087 32.7146 12.5947 30.4286 13.8427 31.7346C13.0527 30.5746 9.66272 28.4606 12.3927 29.1346C12.3787 27.9666 11.8987 27.0226 12.7367 27.0446C13.5667 25.5446 11.8687 30.7446 13.7367 28.8366C14.2527 28.6106 14.3827 27.3366 15.3107 28.9566C16.6587 30.2846 15.7987 31.2446 13.8947 30.0286C14.2347 31.1846 16.4407 31.5966 16.0247 33.4026C16.4647 34.9926 17.0787 34.4066 17.6147 34.3146C18.0147 35.8586 18.2747 34.7226 18.2947 33.9886C20.2187 34.4006 19.7667 35.5386 20.3707 36.3326C21.6967 36.9326 18.4707 32.2766 20.7507 34.9326C23.1447 37.0926 21.6507 37.9986 19.5007 37.6526C20.8607 37.5426 21.3007 39.4926 23.0007 39.4226C24.5527 40.1626 25.6007 42.9966 22.9287 41.8146C22.0027 40.9786 18.7167 39.9466 21.4007 41.5346C23.8767 42.6826 25.8447 43.3666 28.2327 44.8086C29.9407 46.0086 30.6787 47.4246 31.3267 47.7026C29.8907 48.3886 26.9987 47.1546 29.1267 46.7766C27.7867 46.5326 26.2787 45.8566 27.5627 47.5246C28.6547 48.4366 31.4287 48.3406 31.9267 48.4446C31.5067 49.3726 30.7807 49.4446 31.9427 49.5186C30.6467 50.2106 32.3587 50.3186 32.4787 50.7126L32.4947 50.7186ZM29.8427 43.2306C29.0527 42.4046 28.8487 40.8606 29.7027 42.2046C30.1427 42.3806 31.1027 44.7306 29.8427 43.2306ZM38.4827 48.6926C38.9747 48.6606 38.4967 49.0666 38.4827 48.6926ZM28.6027 41.1826C28.8867 42.1426 28.5707 39.9346 28.6027 41.1826ZM27.7427 40.0286C28.9927 40.5686 26.7487 38.1086 27.7427 40.0286ZM17.3387 32.8286C17.9227 32.6726 17.6267 33.8246 17.3387 32.8286ZM25.6187 37.3166C26.0187 38.4446 25.9787 35.9706 25.6187 37.3166ZM19.7687 33.2486C20.6287 33.9446 19.3567 32.5086 19.7687 33.2486ZM24.7887 34.8566C23.8487 32.7506 25.4567 33.7066 24.9987 35.2006L24.7887 34.8566ZM16.1327 29.0846C15.7327 28.3926 15.0187 26.3646 15.2427 25.7446C15.4427 26.7526 17.3867 30.0846 16.1947 27.1446C14.8787 24.6646 17.7687 27.9486 18.0667 28.5686C18.2067 29.1826 17.2547 28.4006 17.8987 29.8446C16.7227 28.2006 17.2047 30.7526 16.1347 29.1046L16.1327 29.0846ZM13.4587 27.2406C14.0707 28.3406 13.5687 25.6326 13.4587 27.2406ZM14.6627 27.6566C15.6347 29.3466 15.2367 26.4446 14.6627 27.6566ZM11.7427 25.4566C10.7467 24.4666 10.0267 23.5566 11.7907 24.8426C12.4707 24.8686 10.2807 22.7686 11.9547 24.1746C13.7147 24.4946 12.8227 27.0606 11.7447 25.4546L11.7427 25.4566ZM13.2627 25.4166C13.8427 24.8426 13.5707 25.9806 13.2627 25.4166ZM14.1987 25.7166C15.2627 26.4066 13.3187 24.0726 14.1987 25.7166ZM12.3387 23.9406C9.44272 21.3606 15.9787 25.2866 12.8107 24.4206L12.3387 23.9406ZM20.6347 28.7606C19.3807 28.0106 20.3007 23.4726 20.7287 26.5746C21.9487 26.1806 20.6607 28.1786 21.5687 28.1586C21.4287 29.4186 21.0187 29.8746 20.6347 28.7606ZM23.7027 30.5746C23.9627 31.5106 23.8227 29.2066 23.7027 30.5746ZM23.1707 30.0466C23.3107 29.4626 23.1827 30.7346 23.1707 30.0466ZM12.9267 23.0926C11.0667 20.5266 18.3327 25.6886 14.1187 23.7426C13.6787 23.6266 13.1487 23.5866 12.9267 23.0926ZM18.8367 26.2246C19.2287 26.5846 18.6607 24.0646 18.8367 26.2246ZM23.3227 29.1046C23.6687 27.8746 23.3487 29.9186 23.3227 29.1046ZM13.2127 22.1126C14.3187 21.8766 17.8127 24.0526 14.6027 22.7326C14.2487 22.3406 13.4907 22.5186 13.2127 22.1126ZM22.7047 26.8446C22.8247 24.6346 23.3647 25.5246 22.7087 27.1646L22.7047 26.8446ZM14.0347 21.3446C14.4867 20.6846 12.8387 18.3586 14.2707 20.5106C14.8707 21.0026 16.0647 21.3346 15.0307 21.5426C16.6607 22.9826 14.6307 21.9326 14.0367 21.3426L14.0347 21.3446ZM22.2347 26.1566C22.5447 23.6366 22.5087 27.6306 22.2347 26.1566ZM13.0947 19.0206C13.4387 18.8726 13.2747 19.4806 13.0947 19.0206ZM15.2347 20.2946C16.2507 21.5826 15.7847 19.1386 15.2347 20.2946ZM21.2687 23.6506C21.3827 24.2966 21.2647 23.2106 21.2687 23.6506ZM20.9187 22.8786C21.7187 23.9726 20.0827 20.8126 20.9187 22.8786ZM20.4047 21.5226C20.8847 22.5946 20.2647 20.6686 20.4047 21.5226ZM21.2407 20.1626C20.6647 19.1506 21.9667 15.7026 22.1127 17.8426C21.5067 19.5106 21.9387 20.4426 22.3587 18.2026C23.1387 16.4426 22.1927 21.6766 21.2407 20.1626ZM22.1007 15.0306C22.3507 14.7226 22.1567 15.4006 22.1007 15.0306ZM20.6627 43.3326C20.7067 43.5206 20.3227 43.0326 20.6627 43.3326ZM23.6227 44.8286C25.2687 45.2526 25.2627 44.5726 23.7727 44.3686C22.9727 43.6246 20.4487 42.8346 22.7087 44.2766C22.8567 44.6766 23.3287 44.6486 23.6227 44.8286ZM17.7827 40.9486C18.6887 41.6286 21.1967 42.8646 19.0747 41.2086C19.7907 40.3766 17.7047 39.9326 18.3947 39.3766C16.6347 38.2966 17.0047 38.3766 18.2387 38.4306C16.1227 37.4846 18.5447 37.5566 18.4307 37.0706C17.6147 36.9106 14.3787 35.6306 16.2827 37.1746C14.3467 36.1886 15.8227 37.5426 15.2367 37.4006C13.2367 36.8606 16.9967 38.9086 14.9227 38.4006C16.0567 39.3006 17.9787 40.7066 15.4027 39.3526C15.0627 39.8406 17.2467 40.5826 17.8027 40.9526L17.7827 40.9486ZM20.8767 42.7286C24.6367 43.9406 19.0307 41.2486 20.8767 42.7286ZM36.7167 52.3246C36.7647 51.5766 36.2027 52.9646 36.7167 52.3246ZM38.3447 53.0106C39.2127 52.1706 38.3807 54.3506 39.7847 52.8046C39.7987 51.6986 39.7447 51.0446 38.1727 52.3886C37.7387 52.6286 37.5467 53.6486 38.3467 53.0086L38.3447 53.0106ZM12.4987 36.7726C12.2327 35.7246 10.6307 35.7286 12.4987 36.7726ZM14.2387 37.9126C13.5927 36.8426 11.9347 36.9426 14.2387 37.9126ZM24.1307 43.8786C25.0967 44.7386 28.5667 44.5086 25.3027 43.9846C24.8227 43.2706 22.2367 43.4446 24.1307 43.8786ZM37.7267 52.2786C39.2127 51.0306 36.2867 52.8346 37.7267 52.2786ZM40.8187 54.4026C40.8287 54.0026 40.1787 54.5766 40.8187 54.4026ZM40.8247 53.8426C42.4707 52.1026 39.2307 53.9426 40.8247 53.8426ZM8.22272 33.1926C6.82272 31.1926 7.35072 30.2926 5.99872 28.6586C5.74272 27.4086 3.67872 24.5726 4.93072 27.5786C6.07872 29.3386 6.41872 32.0586 8.22272 33.1986V33.1926ZM40.3027 53.2846C43.3327 51.3286 39.0627 52.4326 40.3027 53.2846ZM42.6147 54.1906C44.1347 52.8906 41.6547 53.9186 42.6147 54.1906ZM11.9827 34.5626C12.4167 33.9166 10.8627 34.4786 11.9827 34.5626ZM42.1327 53.5726C43.6007 52.6266 41.7927 52.7726 41.8667 53.6586L42.1327 53.5726ZM22.2087 41.0126C22.1587 40.3726 21.4327 41.0666 22.2087 41.0126ZM23.4387 41.7206C23.0467 40.9286 22.8387 41.8446 23.4387 41.7206ZM44.4887 54.2106C46.3687 52.8506 43.3487 53.9506 44.0947 54.4706L44.4887 54.2106ZM43.7687 53.8626C45.3027 52.5786 42.1487 54.4306 43.7687 53.8626ZM47.4487 56.3126C48.4767 55.6246 46.1987 56.0926 47.4487 56.3126ZM12.9287 34.0926C14.3087 34.4006 18.4387 37.4886 16.0027 34.3066C14.7547 33.9366 15.5027 30.8866 14.2287 31.4266C15.0827 32.8546 14.9287 33.4626 13.1367 32.5626C10.8827 31.4626 11.8707 33.1066 12.3107 33.5626C11.7107 33.7026 13.1047 34.0826 12.9307 34.0946L12.9287 34.0926ZM6.64872 29.1326C6.89472 28.1126 4.37472 23.5126 5.45872 26.8286C5.84872 27.5226 5.80872 28.8386 6.64872 29.1326ZM18.1807 36.2426C18.1467 36.1586 17.4687 35.6486 18.1807 36.2426ZM19.9287 36.6506C19.9287 35.5706 17.9967 36.2106 19.9287 36.6506ZM35.0827 46.2026C34.7927 45.4626 33.9427 46.1866 35.0827 46.2026ZM35.8107 46.7346C35.7027 46.3206 35.4107 46.8146 35.8107 46.7346ZM41.8167 50.5186C42.3967 50.0926 41.0967 50.4626 41.8167 50.5186ZM9.78272 29.9366C11.4347 29.2966 8.01272 29.4806 9.78272 29.9366ZM33.7427 45.0326C33.7227 43.9626 32.6887 45.2986 33.7427 45.0326ZM9.12872 28.4126C10.1887 28.0526 8.14872 28.1766 9.12872 28.4126ZM12.2087 29.9046C12.1887 29.5526 11.8827 30.0386 12.2087 29.9046ZM49.7847 52.9446C51.1487 52.6686 54.2607 53.6386 54.7647 52.5846C53.1047 52.5446 49.0307 51.4146 48.8387 52.8526L49.1987 52.9126L49.7847 52.9486V52.9446ZM13.1887 30.1526C13.2127 29.0686 12.3447 30.1126 13.1887 30.1526ZM5.08872 24.5326C4.72072 22.4686 3.68872 24.2206 5.08872 24.5326ZM7.01872 25.0186C7.04272 24.3546 5.25072 24.4226 7.01872 25.0186ZM8.12272 25.5586C7.87472 25.8846 7.80272 25.2986 8.12272 25.5586ZM15.0687 30.0126C15.3967 29.7126 14.2947 29.7926 15.0687 30.0126ZM7.38872 24.3326C7.20072 22.7726 5.14872 24.0986 7.38872 24.3326ZM3.42872 21.7626C3.37272 21.0426 3.04272 22.0346 3.42872 21.7626ZM4.01872 21.3186C3.92272 20.4646 3.51272 21.4266 4.01872 21.3186ZM7.27272 23.2586C8.64872 22.7186 4.76672 22.1386 6.99272 23.1586L7.27272 23.2586ZM50.8287 50.1726C51.7087 49.3646 49.7087 49.9226 50.8287 50.1726ZM56.0887 52.8986C56.4427 51.8586 55.1987 53.0386 56.0887 52.8986ZM7.60272 21.5626C7.74872 20.5526 6.51072 21.7626 7.60272 21.5626ZM2.97072 18.4626C2.72672 17.0326 2.76272 14.5326 5.13872 15.3766C1.96472 16.0086 7.33872 19.3246 6.65872 16.7046C7.99472 16.7706 9.27072 15.9146 8.56872 17.2106C11.2027 16.9246 13.0227 14.6406 15.5667 14.9626C17.5667 14.6986 19.7107 14.5026 21.8467 13.7026C23.6007 13.5766 25.2867 11.6886 24.3267 10.5686C21.9347 10.3686 19.4307 10.6646 16.7867 11.1926C13.8567 11.8006 11.1967 12.9586 8.24072 13.4526C5.36072 13.8406 8.82072 14.5186 7.99472 14.6726C6.49472 15.1926 9.78872 15.5446 7.80072 16.0966C6.57272 15.8626 5.29472 15.4406 5.82072 14.1466C3.06072 14.5066 0.634722 15.6506 2.81672 18.4586L2.97672 18.4606L2.97072 18.4626ZM9.62672 15.0926C10.2727 12.7086 13.0927 17.0526 10.6867 15.4126C10.4007 15.1966 9.92672 15.0226 9.62672 15.0926ZM9.75272 13.9366C10.6867 13.2426 10.2487 14.3266 9.75272 13.9366ZM10.9387 13.9566C11.0247 12.8606 13.6547 14.5566 11.3727 14.3506L10.9387 13.9566ZM12.5587 13.3046C13.1527 12.6106 12.7307 13.9186 12.5587 13.3046ZM12.9747 13.0246C13.9627 11.8386 18.5607 12.2646 15.1747 12.9086C14.2747 12.2286 13.5807 13.3086 12.9747 13.0246ZM18.9747 12.0986C21.9587 13.2486 18.8267 8.85865 18.9747 12.0986ZM20.6787 12.0886C21.2987 10.4566 23.0987 11.4326 20.9687 11.7606C21.0147 11.9346 20.9047 12.6046 20.6787 12.0886ZM6.93272 20.7426C8.79272 19.6026 4.95872 19.7546 6.93272 20.7426ZM8.30872 21.1426C8.96072 20.4486 6.90872 20.8626 8.30872 21.1426ZM4.25672 18.2326C5.31672 17.4126 2.99672 17.9226 4.25672 18.2326ZM59.1967 52.6026C59.2267 51.6546 58.3847 53.0286 59.1967 52.6026ZM53.6167 48.7926C53.7767 47.7026 52.8967 48.8866 53.6167 48.7926ZM60.7367 52.9726C62.2227 52.9786 65.2407 52.5126 62.0067 52.5126C61.4987 52.5926 59.0467 52.5726 60.7367 52.9726ZM9.52272 20.4386C10.7267 20.3586 11.4027 19.1126 9.28872 19.1826C6.00872 18.8426 12.1807 20.3066 8.88872 19.8866C8.44472 20.1806 9.51672 20.5186 9.54272 20.4366L9.52272 20.4386ZM10.5827 20.9746C10.4567 20.2026 10.2107 21.3846 10.5827 20.9746ZM11.8427 17.6226C12.3627 16.9746 11.1227 17.4486 11.8427 17.6226ZM7.84272 10.9346C9.99072 10.2046 12.9267 9.38465 13.9427 11.2946C12.9107 10.0546 13.5267 8.83065 14.5027 10.6466C15.8827 12.4826 16.5707 9.81065 15.6747 9.19465C16.6947 10.4626 17.8547 11.0626 16.3587 9.27465C17.9887 7.31465 13.0987 9.53065 11.9867 9.50865C11.4527 9.74865 6.46672 10.7806 7.84672 10.9346H7.84272ZM9.10272 8.52465C10.3267 7.60065 13.3387 9.07465 11.4067 7.60465C11.2167 7.43865 7.17672 8.71865 9.10272 8.52465ZM13.5667 8.70865C14.9987 8.74465 12.9467 6.78265 14.6547 7.67265C14.3747 6.75665 12.6667 6.58665 11.8307 6.21865C11.3587 7.05465 12.7907 8.71865 13.5647 8.70865H13.5667ZM9.88672 4.65665C10.3827 3.98465 9.01672 4.99665 9.88672 4.65665ZM11.7027 5.09265C14.0127 4.78665 11.1147 4.09865 11.2367 5.06865L11.7027 5.09265ZM8.29472 2.43265C6.66872 0.308645 11.3547 2.78865 9.70072 0.566645C8.30872 -0.539355 6.97472 1.81465 8.29472 2.43265ZM29.1627 13.6726C29.9087 12.3526 26.0827 11.8926 28.6627 13.2046C28.8987 13.2846 28.8467 13.7646 29.1627 13.6726Z" fill="white"/>
</svg>
