<svg width="67" height="65" viewBox="0 0 67 65" fill="none" xmlns="http://www.w3.org/2000/svg">
<path d="M22.5207 51.5566C22.5207 51.8213 22.2163 52.033 21.8325 52.033C21.3958 52.0727 21.0914 51.861 21.0914 51.5566C21.0914 51.2919 21.3958 51.0802 21.7796 51.0802C22.1766 51.0405 22.5207 51.2522 22.5207 51.5566ZM18.4049 50.9611C18.3123 51.2258 18.577 51.5302 18.974 51.6096C19.3181 51.7419 19.7151 51.6096 19.7945 51.3449C19.8739 51.0802 19.6225 50.7758 19.2254 50.6567C18.8814 50.5641 18.4976 50.6964 18.4049 50.9611ZM24.2543 50.7361C23.8705 50.8288 23.6058 51.0802 23.6455 51.3846C23.6852 51.6493 24.0293 51.8213 24.4263 51.7287C24.8101 51.636 25.0748 51.3846 25.0351 51.1199C24.9954 50.8685 24.6381 50.6964 24.2543 50.7361ZM32.9622 0.0239258C14.6068 0.0239258 0.565674 13.9592 0.565674 32.3146C0.565674 46.9909 9.80292 59.5499 22.9971 63.97C24.691 64.2744 25.2865 63.2289 25.2865 62.3687C25.2865 61.5482 25.2468 57.0222 25.2468 54.2431C25.2468 54.2431 15.9831 56.2282 14.0378 50.2994C14.0378 50.2994 12.5291 46.4484 10.3587 45.4558C10.3587 45.4558 7.32818 43.3781 10.5705 43.4178C10.5705 43.4178 13.8657 43.6825 15.6788 46.8321C18.577 51.9404 23.4338 50.4715 25.3263 49.598C25.6306 47.4806 26.4908 46.0116 27.4437 45.1382C20.0459 44.3177 12.582 43.2458 12.582 30.5148C12.582 26.8755 13.5878 25.0492 15.7052 22.72C15.3611 21.8598 14.2363 18.3131 16.0493 13.7342C18.8152 12.874 25.1807 17.3074 25.1807 17.3074C27.8275 16.5663 30.6727 16.1825 33.4916 16.1825C36.3104 16.1825 39.1556 16.5663 41.8024 17.3074C41.8024 17.3074 48.1679 12.8608 50.9338 13.7342C52.7468 18.3264 51.622 21.8598 51.2779 22.72C53.3953 25.0624 54.6922 26.8887 54.6922 30.5148C54.6922 43.2855 46.8975 44.3045 39.4997 45.1382C40.7172 46.1837 41.7495 48.1688 41.7495 51.2787C41.7495 55.7385 41.7098 61.2571 41.7098 62.3422C41.7098 63.2024 42.3185 64.2479 43.9992 63.9435C57.2331 59.5499 66.2057 46.9909 66.2057 32.3146C66.2057 13.9592 51.3176 0.0239258 32.9622 0.0239258ZM13.429 45.6676C13.257 45.7999 13.2967 46.1043 13.5216 46.3557C13.7334 46.5675 14.0378 46.6601 14.2098 46.4881C14.3818 46.3557 14.3421 46.0513 14.1172 45.7999C13.9054 45.5882 13.601 45.4955 13.429 45.6676ZM11.9997 44.5956C11.9071 44.7676 12.0394 44.9794 12.3041 45.1117C12.5159 45.2441 12.7805 45.2044 12.8732 45.0191C12.9658 44.8471 12.8335 44.6353 12.5688 44.503C12.3041 44.4236 12.0924 44.4633 11.9997 44.5956ZM16.2875 49.3069C16.0758 49.4789 16.1552 49.8759 16.4596 50.1274C16.7639 50.4317 17.1477 50.4715 17.3198 50.2597C17.4918 50.0877 17.4124 49.6907 17.1477 49.4392C16.8566 49.1348 16.4596 49.0951 16.2875 49.3069ZM14.7789 47.3615C14.5671 47.4938 14.5671 47.8379 14.7789 48.1423C14.9906 48.4467 15.3479 48.579 15.52 48.4467C15.7317 48.2746 15.7317 47.9305 15.52 47.6262C15.3347 47.3218 14.9906 47.1895 14.7789 47.3615Z" fill="black"/>
</svg>
