<svg width="67" height="65" viewBox="0 0 67 65" fill="none" xmlns="http://www.w3.org/2000/svg">
<path d="M22.5209 51.5566C22.5209 51.8213 22.2165 52.033 21.8328 52.033C21.396 52.0727 21.0917 51.861 21.0917 51.5566C21.0917 51.2919 21.396 51.0802 21.7798 51.0802C22.1768 51.0405 22.5209 51.2522 22.5209 51.5566ZM18.4052 50.9611C18.3125 51.2258 18.5772 51.5302 18.9742 51.6096C19.3183 51.7419 19.7153 51.6096 19.7947 51.3449C19.8741 51.0802 19.6227 50.7758 19.2257 50.6567C18.8816 50.5641 18.4978 50.6964 18.4052 50.9611ZM24.2546 50.7361C23.8708 50.8288 23.6061 51.0802 23.6458 51.3846C23.6855 51.6493 24.0296 51.8213 24.4266 51.7287C24.8104 51.636 25.0751 51.3846 25.0353 51.1199C24.9956 50.8685 24.6383 50.6964 24.2546 50.7361ZM32.9624 0.0239258C14.6071 0.0239258 0.565918 13.9592 0.565918 32.3146C0.565918 46.9909 9.80316 59.5499 22.9973 63.97C24.6913 64.2744 25.2868 63.2289 25.2868 62.3687C25.2868 61.5482 25.2471 57.0222 25.2471 54.2431C25.2471 54.2431 15.9834 56.2282 14.038 50.2994C14.038 50.2994 12.5293 46.4484 10.359 45.4558C10.359 45.4558 7.32843 43.3781 10.5707 43.4178C10.5707 43.4178 13.866 43.6825 15.679 46.8321C18.5772 51.9404 23.4341 50.4715 25.3265 49.598C25.6309 47.4806 26.4911 46.0116 27.4439 45.1382C20.0462 44.3177 12.5823 43.2458 12.5823 30.5148C12.5823 26.8755 13.588 25.0492 15.7055 22.72C15.3614 21.8598 14.2365 18.3131 16.0495 13.7342C18.8154 12.874 25.1809 17.3074 25.1809 17.3074C27.8277 16.5663 30.673 16.1825 33.4918 16.1825C36.3106 16.1825 39.1559 16.5663 41.8027 17.3074C41.8027 17.3074 48.1682 12.8608 50.934 13.7342C52.7471 18.3264 51.6222 21.8598 51.2781 22.72C53.3955 25.0624 54.6925 26.8887 54.6925 30.5148C54.6925 43.2855 46.8977 44.3045 39.5 45.1382C40.7175 46.1837 41.7497 48.1688 41.7497 51.2787C41.7497 55.7385 41.71 61.2571 41.71 62.3422C41.71 63.2024 42.3188 64.2479 43.9995 63.9435C57.2334 59.5499 66.2059 46.9909 66.2059 32.3146C66.2059 13.9592 51.3178 0.0239258 32.9624 0.0239258ZM13.4292 45.6676C13.2572 45.7999 13.2969 46.1043 13.5219 46.3557C13.7336 46.5675 14.038 46.6601 14.21 46.4881C14.3821 46.3557 14.3424 46.0513 14.1174 45.7999C13.9057 45.5882 13.6013 45.4955 13.4292 45.6676ZM12 44.5956C11.9073 44.7676 12.0397 44.9794 12.3044 45.1117C12.5161 45.2441 12.7808 45.2044 12.8734 45.0191C12.9661 44.8471 12.8337 44.6353 12.569 44.503C12.3044 44.4236 12.0926 44.4633 12 44.5956ZM16.2878 49.3069C16.076 49.4789 16.1554 49.8759 16.4598 50.1274C16.7642 50.4317 17.148 50.4715 17.32 50.2597C17.492 50.0877 17.4126 49.6907 17.148 49.4392C16.8568 49.1348 16.4598 49.0951 16.2878 49.3069ZM14.7791 47.3615C14.5674 47.4938 14.5674 47.8379 14.7791 48.1423C14.9908 48.4467 15.3482 48.579 15.5202 48.4467C15.7319 48.2746 15.7319 47.9305 15.5202 47.6262C15.3349 47.3218 14.9908 47.1895 14.7791 47.3615Z" fill="white"/>
</svg>
