<svg width="65" height="62" viewBox="0 0 65 62" fill="none" xmlns="http://www.w3.org/2000/svg">
<path d="M4.73488 14.6519C-0.925117 22.7919 -0.225117 33.3799 4.10288 42.0519C4.20288 42.2599 4.31288 42.4639 4.41888 42.6679L4.61888 43.0579C4.65888 43.1339 4.70288 43.2079 4.74488 43.2819C4.81888 43.4219 4.89488 43.5499 4.97088 43.6859L5.38488 44.3939L5.62088 44.7819L6.10088 45.5319L6.30488 45.8479C6.53088 46.1839 6.76088 46.5199 6.99888 46.8479L7.13488 47.0319C7.34105 47.3152 7.55174 47.5953 7.76688 47.8719L8.00688 48.1759L8.59088 48.8959L8.81488 49.1639C9.08088 49.4779 9.35488 49.7899 9.62888 50.0939C9.65688 50.1239 9.66888 50.1339 9.67688 50.1459C9.94859 50.4406 10.2246 50.7313 10.5049 51.0179L10.7709 51.2859L11.4309 51.9339L11.7009 52.1939C11.9979 52.474 12.3 52.7487 12.6069 53.0179L13.5989 53.8579L13.9389 54.1299L14.6249 54.6659L14.9909 54.9459L15.7609 55.4979L16.1209 55.7519C16.3669 55.9219 16.6169 56.0839 16.8689 56.2459L17.1929 56.4619C17.5789 56.707 17.969 56.9457 18.3629 57.1779L18.6869 57.3779L19.5669 57.8699C19.7269 57.9559 19.8909 58.0379 20.0529 58.1199L20.6809 58.4459L20.8269 58.5159L21.0869 58.6399L22.0829 59.0999L22.2929 59.1939C22.6774 59.3614 23.0647 59.5221 23.4549 59.6759L23.7349 59.7879L24.8309 60.1939L24.9709 60.2419C25.3756 60.3812 25.7823 60.5146 26.1909 60.6419L26.4869 60.7299C26.8869 60.8559 27.3189 61.0099 27.7469 61.0859C55.1349 66.0799 63.0869 44.6259 63.0869 44.6259C56.4069 53.3299 44.5469 55.6259 33.2869 53.0699C32.8609 52.9739 32.4469 52.8419 32.0329 52.7179L31.7209 52.6239C31.316 52.4994 30.9133 52.3681 30.5129 52.2299L30.3469 52.1699C29.9904 52.0434 29.6357 51.912 29.2829 51.7759L28.9829 51.6559C28.5963 51.5038 28.2129 51.3437 27.8329 51.1759L27.6029 51.0759L26.6329 50.6239L26.3529 50.4899C26.1009 50.3699 25.8529 50.2359 25.6029 50.0899L25.1029 49.8299C24.7989 49.6699 24.5029 49.4979 24.2029 49.3259L23.8989 49.1559C23.5051 48.9234 23.1151 48.6847 22.7289 48.4399C22.6229 48.3719 22.5189 48.2999 22.4129 48.2299L21.5809 47.6759C21.4889 47.6159 21.3809 47.5479 21.3129 47.4879L20.5249 46.9179L20.1749 46.6539L19.4649 46.0979L19.1489 45.8439L18.2649 45.0979C18.2327 45.0698 18.1994 45.0431 18.1649 45.0179L17.2349 44.1719L16.9749 43.9199L16.3109 43.2599L16.0509 42.9999C15.7709 42.7139 15.4989 42.4259 15.2509 42.1319C15.2369 42.1179 15.2229 42.1039 15.2109 42.0879C14.9277 41.7771 14.6503 41.461 14.3789 41.1399L14.1789 40.8799L13.5789 40.1399L13.3789 39.8659L12.6869 38.9459C6.41088 30.4419 4.16688 18.6859 9.15488 9.04589M22.3149 7.79588C18.2189 13.6899 18.4409 21.5959 21.6349 27.8119C22.1701 28.8595 22.7755 29.8698 23.4469 30.8359C24.0609 31.7159 24.7409 32.7619 25.5549 33.4679C25.8509 33.7939 26.1589 34.1079 26.4749 34.4219L26.7149 34.6619C27.0206 34.96 27.3333 35.2507 27.6529 35.5339C27.6669 35.5439 27.6769 35.5579 27.6929 35.5679C28.0569 35.8879 28.4249 36.1679 28.7989 36.4839L29.0469 36.6779C29.4221 36.9673 29.8049 37.2467 30.1949 37.5159L30.2289 37.5399C30.4009 37.6599 30.5769 37.7699 30.7529 37.8859C30.8369 37.9399 30.9169 37.9979 31.0009 38.0499C31.2805 38.2293 31.5639 38.4026 31.8509 38.5699L31.9709 38.6399L32.7229 39.0399C32.8109 39.0899 32.9229 39.1319 32.9909 39.1799L33.5169 39.4519C33.5429 39.4659 33.5709 39.4759 33.5969 39.4879C33.9576 39.6675 34.3231 39.8376 34.6929 39.9979L34.9329 40.0979C35.2308 40.2244 35.5308 40.3457 35.8329 40.4619L36.2169 40.6019C36.4907 40.7014 36.7661 40.7968 37.0429 40.8879L37.4169 41.0079C37.8109 41.1279 38.2169 41.2879 38.6109 41.3539C59.7569 44.8579 64.6389 28.5539 64.6389 28.5539C60.2389 34.8939 51.7189 37.9139 42.6229 35.5539C42.2209 35.4481 41.8214 35.3327 41.4249 35.2079C41.3049 35.1719 41.1849 35.1319 41.0649 35.0919L40.2249 34.8039L39.8249 34.6639C39.5229 34.5474 39.2229 34.426 38.9249 34.2999L38.6809 34.1999C38.3088 34.0381 37.9407 33.8674 37.5769 33.6879L37.0229 33.4079L36.7029 33.2439C36.4676 33.1161 36.2342 32.9848 36.0029 32.8499L35.8349 32.7559C35.5488 32.5883 35.266 32.4149 34.9869 32.2359C34.9009 32.1819 34.8169 32.1219 34.7309 32.0659L34.1809 31.7019C33.7935 31.4334 33.4134 31.1546 33.0409 30.8659L32.7809 30.6659C28.7809 27.5219 25.6449 23.2259 24.1449 18.3579C22.5729 13.3079 22.9109 7.63788 25.6349 3.03788M37.0989 2.67188C34.6869 6.24188 34.4469 10.6379 36.1229 14.5619C37.8889 18.7279 41.5089 21.9939 45.7349 23.5619L46.2589 23.7619L46.4909 23.8339L47.2449 24.0339C58.9209 26.2899 62.0849 18.0419 62.9309 16.8279C60.1569 20.8219 55.4949 21.7799 49.7749 20.3919C49.3229 20.2819 48.8269 20.1179 48.3909 19.9639C47.8313 19.7656 47.2825 19.5379 46.7469 19.2819C45.7303 18.793 44.7648 18.2041 43.8649 17.5239C38.7469 13.6419 35.5669 6.21388 38.9069 0.181885" fill="#66BBF7"/>
</svg>
