<svg width="65" height="65" viewBox="0 0 65 65" fill="none" xmlns="http://www.w3.org/2000/svg">
<path d="M0.615723 2.46476C0.615723 1.11672 1.70852 0.0239258 3.05655 0.0239258H62.1749C63.5229 0.0239258 64.6157 1.11672 64.6157 2.46476V61.5831C64.6157 62.9311 63.5229 64.0239 62.1749 64.0239H3.05655C1.70852 64.0239 0.615723 62.9311 0.615723 61.5831V2.46476Z" fill="black"/>
<path fill-rule="evenodd" clip-rule="evenodd" d="M36.8007 19.2963L36.7456 4.47485H28.4809L28.5359 19.2963L32.6683 24.9714L36.8007 19.2963ZM28.5359 44.6965V59.573H36.8007V44.6965L32.6683 39.0214L28.5359 44.6965Z" fill="white"/>
<path fill-rule="evenodd" clip-rule="evenodd" d="M36.8007 44.6965L45.5062 56.7079L52.1731 51.8593L43.4676 39.8479L36.8007 37.699L36.8007 44.6965ZM28.5359 19.2963L19.7753 7.28486L13.1085 12.1335L21.814 24.1449L28.5359 26.2937L28.5359 19.2963Z" fill="#00F2E6"/>
<path fill-rule="evenodd" clip-rule="evenodd" d="M21.814 24.1449L7.70885 19.5717L5.17433 27.3957L19.2795 32.0239L25.9463 29.82L21.814 24.1449ZM39.3352 34.1728L43.4676 39.8479L57.5727 44.421L60.1072 36.5971L46.0021 32.0239L39.3352 34.1728Z" fill="#00B9F1"/>
<path fill-rule="evenodd" clip-rule="evenodd" d="M46.0021 32.0239L60.1072 27.3957L57.5727 19.5717L43.4676 24.1449L39.3352 29.82L46.0021 32.0239ZM19.2795 32.0239L5.17433 36.5971L7.70885 44.421L21.814 39.8479L25.9463 34.1728L19.2795 32.0239Z" fill="#D63AFF"/>
<path fill-rule="evenodd" clip-rule="evenodd" d="M21.814 39.8479L13.1085 51.8593L19.7753 56.7079L28.5359 44.6965L28.5359 37.699L21.814 39.8479ZM43.4676 24.1449L52.1731 12.1335L45.5062 7.28486L36.8007 19.2963L36.8007 26.2937L43.4676 24.1449Z" fill="#FB015B"/>
</svg>
