<svg width="65" height="64" viewBox="0 0 65 64" fill="none" xmlns="http://www.w3.org/2000/svg">
<path fill-rule="evenodd" clip-rule="evenodd" d="M59.0755 49.1003C55.5947 49.0033 52.8943 49.3601 50.631 50.3122C49.9793 50.574 48.9335 50.574 48.8476 51.3942C49.1959 51.7384 49.2379 52.3017 49.5432 52.7787C50.0651 53.6445 50.9802 54.8108 51.8065 55.4158L54.5918 57.4062C56.2893 58.4436 58.2044 59.0496 59.8579 60.0879C60.816 60.6939 61.773 61.4724 62.731 62.122C63.2188 62.4681 63.5144 63.0314 64.1241 63.2466V63.1158C63.8197 62.7279 63.7319 62.1656 63.4285 61.7313L62.1213 60.4777C60.8599 58.7907 59.2921 57.319 57.5946 56.109C56.2015 55.1569 53.1558 53.8597 52.5899 52.26L52.5041 52.163C53.4601 52.0661 54.5918 51.7296 55.5069 51.4698C56.9878 51.082 58.3361 51.1673 59.8579 50.7785L61.9486 50.1726V49.7848C61.1652 49.0063 60.5994 47.9679 59.7731 47.233C57.5536 45.3298 55.1147 43.4693 52.5899 41.9122C51.2407 41.0474 49.4993 40.4841 48.0633 39.7502C47.5394 39.4904 46.6702 39.3604 46.3658 38.928C45.5804 37.9779 45.1463 36.7224 44.5805 35.5967L41.0118 28.0703C40.2284 26.3834 39.7485 24.6964 38.7924 23.1393C34.3087 15.7855 29.4328 11.3305 21.9462 6.96086C20.3365 6.05242 18.4215 5.66169 16.3855 5.18663L13.1212 5.01211C12.4236 4.70962 11.7281 3.88746 11.1183 3.49771C8.63746 1.94066 2.23868 -1.43329 0.409483 3.01295C-0.766082 5.82457 2.15088 8.59257 3.14108 10.0207C3.88252 11.0154 4.83858 12.1401 5.36246 13.2647C5.65513 13.9996 5.75269 14.7791 6.05805 15.5576C6.75363 17.4608 7.40726 19.5812 8.32138 21.3554C8.80916 22.2638 9.32134 23.2169 9.93107 24.0381C10.2794 24.5228 10.8891 24.7303 11.0188 25.5088C10.4091 26.3746 10.3671 27.6709 10.0189 28.7538C8.45112 33.6422 9.06086 39.6978 11.2803 43.2967C11.9778 44.3777 13.6217 46.7579 15.8518 45.8485C17.8108 45.07 17.3737 42.6045 17.9395 40.4415C18.0712 39.9228 17.9834 39.5767 18.2439 39.2296V39.3265L20.0292 42.9167C21.3784 45.036 23.7296 47.2427 25.6875 48.7144C26.7314 49.493 27.5587 50.8348 28.864 51.3098V51.179H28.7782C28.5167 50.7911 28.1245 50.6166 27.7762 50.3141C26.9929 49.5356 26.1226 48.5835 25.5129 47.7187C23.6857 45.2968 22.076 42.6142 20.639 39.8462C19.9414 38.5053 19.3317 37.0346 18.7678 35.6937C18.5044 35.174 18.5044 34.3945 18.0703 34.1366C17.4166 35.0868 16.4606 35.9109 15.9796 37.0782C15.1523 38.9377 15.0665 41.2307 14.7621 43.6099C14.5865 43.6535 14.6646 43.6099 14.5865 43.7068C13.1953 43.3617 12.7154 41.9326 12.1934 40.7226C10.8881 37.6512 10.6696 32.7202 11.8012 29.1727C12.1056 28.2642 13.4129 25.409 12.891 24.5442C12.6276 23.722 11.7593 23.2469 11.2793 22.5974C10.7135 21.7752 10.1057 20.7378 9.71351 19.8294C8.66965 17.4056 8.14772 14.7248 7.01508 12.302C6.4912 11.1773 5.57807 10.009 4.83761 8.97165C4.01032 7.80337 3.09816 6.98122 2.44453 5.59771C2.22697 5.11294 1.92259 4.34314 2.27087 3.82348C2.35672 3.47736 2.53233 3.33871 2.87865 3.26115C3.44449 2.77639 5.05613 3.39107 5.62196 3.64896C7.23166 4.29854 8.58087 4.90353 9.93009 5.811C10.5398 6.24341 11.1935 7.06557 11.9768 7.28274H12.8919C14.285 7.58523 15.8508 7.3797 17.1552 7.76751C19.4624 8.50434 21.5511 9.58439 23.4242 10.7536C29.1255 14.3438 33.8277 19.4483 37.0042 25.5486C37.5261 26.5433 37.7437 27.4518 38.2236 28.4901C39.1387 30.6105 40.2704 32.7725 41.1826 34.8502C42.0976 36.8833 42.9679 38.961 44.2732 40.648C44.9268 41.5564 47.5374 42.0315 48.712 42.5075C49.5832 42.8953 50.9315 43.2444 51.7168 43.7194C53.1958 44.6279 54.6757 45.6662 56.0678 46.661C56.7634 47.1787 58.9409 48.2607 59.0707 49.1236L59.0755 49.1003ZM14.687 11.5099C14.0856 11.5046 13.4861 11.5773 12.9036 11.7261V11.823H12.9895C13.3378 12.5153 13.9475 12.9913 14.3826 13.5973L15.3845 15.674L15.4704 15.577C16.0801 15.1446 16.3855 14.4524 16.3855 13.415C16.124 13.1125 16.0811 12.809 15.8635 12.5065C15.6021 12.0741 15.0362 11.857 14.687 11.5118V11.5099Z" fill="#57C6EE"/>
</svg>
