<svg width="65" height="63" viewBox="0 0 65 63" fill="none" xmlns="http://www.w3.org/2000/svg">
<path fill-rule="evenodd" clip-rule="evenodd" d="M24.6876 0.605213C18.1649 1.721 16.9835 4.0642 16.9835 8.37149L16.9832 14.0561H32.3916V15.9531H11.2024C6.72236 15.9531 2.80178 18.5701 1.5748 23.53C0.159601 29.2155 0.0968617 32.7526 1.5748 38.6892C2.67048 43.1081 5.2787 46.2661 9.75843 46.2661H15.0544V39.448C15.0544 34.5216 19.4601 30.1641 24.6876 30.1641H40.0901C44.3758 30.1641 47.7942 26.75 47.7942 22.5821V8.37149C47.7942 4.32662 44.2733 1.28025 40.0901 0.605213C34.7938 -0.248468 29.1159 -0.153615 24.6876 0.605213ZM23.4219 10.5404C25.0788 10.5404 26.4219 9.19726 26.4219 7.54041C26.4219 5.88355 25.0788 4.54041 23.4219 4.54041C21.7651 4.54041 20.4219 5.88355 20.4219 7.54041C20.4219 9.19726 21.7651 10.5404 23.4219 10.5404Z" fill="url(#paint0_linear_444_1052)"/>
<path fill-rule="evenodd" clip-rule="evenodd" d="M40.0904 61.4252C43.9709 60.3372 47.7945 58.1556 47.7945 53.8483V48.1637H32.3919V46.2667H55.4988C59.9786 46.2667 61.645 43.2314 63.2029 38.6898C64.8121 34.0141 64.7435 29.5285 63.2029 23.5306C62.0962 19.2119 59.9844 15.9537 55.4988 15.9537H49.7236V22.5821C49.7236 27.7209 45.2209 32.0557 40.0904 32.0557H24.6879C20.4707 32.0557 16.9838 35.5479 16.9838 39.6377V53.8483C16.9838 57.8935 20.613 60.2648 24.6879 61.4252C29.567 62.8145 34.2524 63.0655 40.0904 61.4252ZM41.4219 57.5404C43.0788 57.5404 44.4219 56.1973 44.4219 54.5404C44.4219 52.8836 43.0788 51.5404 41.4219 51.5404C39.7651 51.5404 38.4219 52.8836 38.4219 54.5404C38.4219 56.1973 39.7651 57.5404 41.4219 57.5404Z" fill="url(#paint1_linear_444_1052)"/>
<defs>
<linearGradient id="paint0_linear_444_1052" x1="64.3847" y1="24.3213" x2="0.490421" y2="23.8023" gradientUnits="userSpaceOnUse">
<stop stop-color="#366A96"/>
<stop offset="1" stop-color="#3679B0"/>
</linearGradient>
<linearGradient id="paint1_linear_444_1052" x1="64.3839" y1="39.2586" x2="-29.2559" y2="39.2586" gradientUnits="userSpaceOnUse">
<stop stop-color="#FFC836"/>
<stop offset="1" stop-color="#FFE873"/>
</linearGradient>
</defs>
</svg>
