<svg width="124" height="101" viewBox="0 0 124 101" fill="none" xmlns="http://www.w3.org/2000/svg">
<path fill-rule="evenodd" clip-rule="evenodd" d="M103.354 7.10827L105.944 10.5183C106.624 11.4183 106.454 12.7083 105.554 13.3883L102.804 15.4783C103.304 16.8083 103.624 18.2283 103.754 19.6783L106.884 20.1083C108.004 20.2583 108.784 21.2983 108.634 22.4183L108.054 26.6683C107.904 27.7883 106.864 28.5783 105.744 28.4183L102.324 27.9483C101.714 29.2783 100.934 30.4983 100.014 31.5883L101.934 34.1083C102.614 35.0083 102.434 36.2983 101.534 36.9783L98.1241 39.5683C97.2241 40.2483 95.9341 40.0683 95.2541 39.1783L93.1641 36.4283C91.8241 36.9283 90.4141 37.2483 88.9541 37.3783L88.5241 40.5083C88.3741 41.6283 87.3341 42.4083 86.2141 42.2583L81.9641 41.6783C80.8441 41.5283 80.0641 40.4883 80.2141 39.3683L80.6841 35.9483C79.3641 35.3383 78.1341 34.5583 77.0441 33.6483L74.5241 35.5583C73.6241 36.2383 72.3341 36.0683 71.6541 35.1683L69.0641 31.7583C68.3841 30.8583 68.5541 29.5683 69.4541 28.8883L72.2041 26.7983C71.7041 25.4583 71.3841 24.0483 71.2541 22.5983L68.1241 22.1683C67.0041 22.0183 66.2141 20.9783 66.3741 19.8583L66.9541 15.6083C67.1141 14.4883 68.1441 13.7083 69.2641 13.8583L72.6841 14.3283C73.2941 13.0083 74.0741 11.7783 74.9841 10.6883L73.0741 8.16827C72.3941 7.27827 72.5641 5.98827 73.4641 5.30827L76.8741 2.71827C77.7741 2.03827 79.0641 2.20827 79.7441 3.10827L81.8341 5.85827C83.1641 5.35827 84.5841 5.03827 86.0341 4.90827L86.4641 1.77827C86.6141 0.658275 87.6541 -0.131725 88.7741 0.0182747L93.0241 0.598275C94.1441 0.748275 94.9341 1.78827 94.7741 2.90827L94.3041 6.32827C95.6341 6.93827 96.8541 7.71828 97.9541 8.63828L100.474 6.72827C101.374 6.03827 102.664 6.20827 103.354 7.10827ZM30.2341 67.1183V50.6183H38.7341C40.3141 50.6183 41.5141 50.7483 42.3441 51.0283C43.1741 51.2983 43.8541 51.7983 44.3541 52.5283C44.8641 53.2683 45.1241 54.1583 45.1241 55.2083C45.1241 56.1183 44.9241 56.9183 44.5341 57.5783C44.1441 58.2483 43.6041 58.7883 42.9241 59.1983C42.4941 59.4583 41.8941 59.6783 41.1341 59.8483C41.7441 60.0583 42.1841 60.2483 42.4541 60.4583C42.6441 60.5983 42.9141 60.8883 43.2641 61.3283C43.6141 61.7683 43.8541 62.1183 43.9741 62.3583L46.4541 67.1283H40.6941L37.9741 62.0983C37.6241 61.4483 37.3241 61.0183 37.0541 60.8283C36.6841 60.5783 36.2641 60.4483 35.8041 60.4483H35.3541V67.1283H30.2341V67.1183ZM48.2141 95.8483H38.6941L37.3241 100.328H28.7441L38.9741 73.1383H48.1741L58.3641 100.328H49.5641L48.2141 95.8483ZM46.4341 89.9583L43.4641 80.1783L40.4841 89.9583H46.4341ZM60.3441 73.1383H74.3241C77.3741 73.1383 79.6541 73.8583 81.1641 75.3083C82.6741 76.7583 83.4341 78.8283 83.4341 81.4983C83.4341 84.2483 82.6041 86.3983 80.9541 87.9483C79.3041 89.4983 76.7741 90.2683 73.3841 90.2683H68.7741V100.328H60.3441V73.1383ZM68.7741 84.7583H70.8441C72.4741 84.7583 73.6241 84.4783 74.2841 83.9083C74.9441 83.3483 75.2741 82.6183 75.2741 81.7483C75.2741 80.8983 74.9841 80.1683 74.4141 79.5783C73.8441 78.9883 72.7641 78.6883 71.1841 78.6883H68.7741V84.7583ZM86.8341 73.1383H95.2641V100.328H86.8341V73.1383ZM35.3541 57.3183H37.5041C37.7341 57.3183 38.1841 57.2383 38.8541 57.0883C39.1941 57.0183 39.4741 56.8483 39.6841 56.5683C39.9041 56.2883 40.0041 55.9683 40.0041 55.6083C40.0041 55.0783 39.8341 54.6583 39.4941 54.3783C39.1541 54.0883 38.5241 53.9483 37.5941 53.9483H35.3541V57.3183ZM47.4341 50.6183H61.0841V54.1383H52.5541V56.7683H60.4641V60.1283H52.5541V63.3783H61.3341V67.1083H47.4341V50.6183ZM62.5441 61.6583L67.3841 61.3583C67.4841 62.1483 67.7041 62.7383 68.0241 63.1483C68.5541 63.8083 69.3041 64.1483 70.2741 64.1483C70.9941 64.1483 71.5641 63.9783 71.9541 63.6383C72.3441 63.2983 72.5441 62.8983 72.5441 62.4483C72.5441 62.0183 72.3541 61.6383 71.9841 61.2983C71.6141 60.9583 70.7441 60.6483 69.3741 60.3383C67.1441 59.8383 65.5541 59.1683 64.5941 58.3383C63.6341 57.5083 63.1541 56.4483 63.1541 55.1583C63.1541 54.3083 63.4041 53.5083 63.8941 52.7583C64.3841 52.0083 65.1241 51.4083 66.1141 50.9783C67.1041 50.5483 68.4541 50.3383 70.1741 50.3383C72.2841 50.3383 73.8841 50.7283 74.9941 51.5183C76.0941 52.3083 76.7541 53.5483 76.9641 55.2683L72.1741 55.5583C72.0441 54.8083 71.7741 54.2583 71.3741 53.9283C70.9641 53.5883 70.3941 53.4183 69.6841 53.4183C69.0941 53.4183 68.6441 53.5483 68.3441 53.7983C68.0441 54.0483 67.8941 54.3583 67.8941 54.7183C67.8941 54.9783 68.0241 55.2083 68.2641 55.4283C68.5041 55.6383 69.0641 55.8483 69.9641 56.0383C72.1941 56.5183 73.7941 57.0083 74.7541 57.4983C75.7141 57.9883 76.4241 58.5983 76.8541 59.3283C77.2941 60.0483 77.5141 60.8683 77.5141 61.7683C77.5141 62.8283 77.2241 63.7983 76.6341 64.6883C76.0541 65.5783 75.2341 66.2583 74.1841 66.7183C73.1341 67.1783 71.8141 67.4083 70.2141 67.4083C67.4141 67.4083 65.4641 66.8683 64.3841 65.7883C63.3041 64.6883 62.6941 63.3183 62.5441 61.6583ZM78.2541 50.6183H93.7641V54.6983H88.5641V67.1183H83.4641V54.6983H78.2541V50.6183ZM61.0941 11.4583C59.2641 11.3183 57.4141 11.3383 55.5841 11.5183C49.9541 12.0583 44.4841 14.1083 39.9641 17.6183C34.7341 21.6683 30.7641 27.7283 29.2341 35.7583L28.7541 38.2683L26.2541 38.7083C23.8041 39.1383 21.6141 39.7283 19.6941 40.4783C17.8341 41.1983 16.1741 42.0883 14.7241 43.1383C13.5641 43.9783 12.5641 44.9183 11.7141 45.9383C9.08414 49.0883 7.86414 53.0383 7.89414 57.0383C7.92414 61.0983 9.24414 65.1983 11.6841 68.5683C12.5941 69.8183 13.6441 70.9683 14.8441 71.9683C16.0641 72.9783 17.4341 73.8183 18.9741 74.4483C19.8441 74.8083 20.7741 75.1083 21.7441 75.3483V82.8383C19.7441 82.4783 17.9041 81.9383 16.1841 81.2283C13.9141 80.2883 11.9041 79.0783 10.1341 77.5983C8.45414 76.1983 6.98414 74.6083 5.73414 72.8783C2.40414 68.2783 0.604143 62.6583 0.564143 57.0583C0.524143 51.3983 2.28414 45.7683 6.08414 41.2083C7.31414 39.7283 8.76414 38.3683 10.4241 37.1683C12.3541 35.7683 14.5641 34.5883 17.0641 33.6183C18.7841 32.9483 20.6241 32.3883 22.5641 31.9383C24.7641 23.1983 29.4541 16.4683 35.4841 11.7983C41.1241 7.42828 47.9141 4.87827 54.9041 4.20827C58.5741 3.85827 62.2941 4.01827 65.9341 4.69827C65.8541 5.02827 65.7841 5.35827 65.7441 5.69827L65.7341 5.75828C65.6641 6.32828 65.6341 6.89827 65.6641 7.47827C64.8941 7.77827 64.1741 8.18827 63.5241 8.68827L63.4941 8.70827C62.5241 9.43827 61.7041 10.3783 61.0941 11.4583ZM114.004 30.6583C114.564 31.1683 115.104 31.6983 115.634 32.2683C116.704 33.4183 117.714 34.7183 118.664 36.1683C121.864 41.0883 123.504 47.6583 123.434 54.0883C123.364 60.3983 121.664 66.6783 118.184 71.2983C115.914 74.3083 113.004 76.7683 109.514 78.7183C107.124 80.0583 104.434 81.1683 101.504 82.0683V74.3183C103.084 73.7283 104.554 73.0683 105.904 72.3183C108.534 70.8483 110.684 69.0583 112.294 66.9083C114.794 63.5783 116.024 58.8683 116.074 54.0383C116.134 48.9683 114.894 43.8783 112.484 40.1783C111.794 39.1083 111.034 38.1483 110.234 37.2883C109.924 36.9583 109.614 36.6483 109.294 36.3483C109.344 35.8483 109.364 35.3383 109.334 34.8283C110.104 34.5283 110.824 34.1183 111.474 33.6183L111.504 33.5983C112.534 32.8083 113.394 31.8083 114.004 30.6583ZM88.6441 12.7983C93.2541 13.4283 96.4741 17.6783 95.8441 22.2883C95.2141 26.8983 90.9641 30.1283 86.3541 29.4983C81.7441 28.8683 78.5141 24.6183 79.1541 20.0083C79.7941 15.3983 84.0341 12.1683 88.6441 12.7983Z" fill="white"/>
</svg>
