<svg width="65" height="48" viewBox="0 0 65 48" fill="none" xmlns="http://www.w3.org/2000/svg">
<path d="M55.4554 27.5689C53.2174 27.5819 51.2804 28.1189 49.6554 28.9189C49.0554 27.7309 48.4554 26.6939 48.3554 25.9189C48.2424 25.0189 48.1054 24.4689 48.2424 23.3939C48.3794 22.3189 49.0054 20.7939 49.0054 20.6689C48.9934 20.5559 48.8674 20.0059 47.5804 19.9939C46.2934 19.9819 45.1804 20.2439 45.0554 20.5819C44.8321 21.2064 44.6524 21.8456 44.5174 22.4949C44.2924 23.6699 41.9424 27.8329 40.6044 30.0209C40.1664 29.1709 39.7914 28.4209 39.7164 27.8209C39.6034 26.9209 39.4664 26.3709 39.6034 25.2959C39.7404 24.2209 40.3664 22.6959 40.3664 22.5709C40.3544 22.4579 40.2284 21.9079 38.9414 21.8959C37.6544 21.8839 36.5414 22.1459 36.4164 22.4839C36.2914 22.8219 36.1534 23.6219 35.8784 24.3969C35.6154 25.1719 32.4904 32.1229 31.6784 33.9349C31.2654 34.8599 30.9034 35.5979 30.6404 36.0979C30.3774 36.5979 30.6284 36.1359 30.6034 36.1859L30.2534 36.8489V36.8609C30.0784 37.1739 29.8904 37.4739 29.8034 37.4739C29.7414 37.4739 29.6154 36.6359 29.8284 35.4859C30.2914 33.0729 31.4164 29.3099 31.4034 29.1729C31.4034 29.1109 31.6164 28.4479 30.6784 28.1099C29.7654 27.7719 29.4404 28.3349 29.3654 28.3349C29.2904 28.3349 29.2274 28.5349 29.2274 28.5349C29.2274 28.5349 30.2404 24.2969 27.2894 24.2969C25.4394 24.2969 22.8894 26.3099 21.6264 28.1469L15.2504 31.6349L15.1124 31.4849C11.5394 27.6689 4.92643 24.9689 5.20143 19.8439C5.30143 17.9809 5.95144 13.0679 17.9014 7.11789C27.6894 2.24289 35.5284 3.57989 36.8914 6.55489C38.8294 10.8049 32.7034 18.7049 22.5274 19.8449C18.6524 20.2829 16.6144 18.7819 16.1014 18.2199C15.5634 17.6319 15.4884 17.6069 15.2884 17.7199C14.9634 17.8949 15.1634 18.4199 15.2884 18.7329C15.5884 19.5209 16.8384 20.9209 18.9634 21.6209C20.8264 22.2339 25.3764 22.5709 30.8774 20.4459C37.0404 18.0579 41.8534 11.4329 40.4404 5.89589C39.0024 0.257889 29.6524 -1.59211 20.8134 1.54589C15.5514 3.41889 9.86143 6.34289 5.76143 10.1809C0.876434 14.7309 0.101434 18.7069 0.425434 20.3569C1.56343 26.2449 9.67543 30.0829 12.9254 32.9209L12.4754 33.1709C10.8504 33.9709 4.66243 37.2089 3.11243 40.6339C1.36243 44.5089 3.38743 47.2969 4.73743 47.6719C8.91243 48.8349 13.1874 46.7469 15.5004 43.3089C17.8004 39.8709 17.5254 35.4089 16.4634 33.3709L16.4254 33.2959L17.7004 32.5459C18.5254 32.0579 19.3384 31.6079 20.0504 31.2209C19.6504 32.3089 19.3624 33.5959 19.2124 35.4709C19.0374 37.6709 19.9374 40.5209 21.1254 41.6469C21.6504 42.1349 22.2754 42.1469 22.6634 42.1469C24.0384 42.1469 24.6634 41.0089 25.3514 39.6469C26.2014 37.9839 26.9514 36.0589 26.9514 36.0589C26.9514 36.0589 26.0134 41.2719 28.5764 41.2719C29.5144 41.2719 30.4514 40.0589 30.8764 39.4339V39.4459C30.8764 39.4459 30.9014 39.4079 30.9514 39.3209C31.0514 39.1709 31.1014 39.0829 31.1014 39.0829V39.0579C31.4764 38.4079 32.3144 36.9199 33.5644 34.4579C35.1774 31.2829 36.7274 27.3079 36.7274 27.3079C36.7274 27.3079 36.8774 28.2829 37.3404 29.8829C37.6154 30.8329 38.2154 31.8709 38.6784 32.8829L38.0784 33.7079L38.0904 33.7209C37.7705 34.1449 37.441 34.5616 37.1024 34.9709C35.8274 36.4959 34.3024 38.2339 34.1024 38.7339C33.8644 39.3219 33.9144 39.7589 34.3774 40.1089C34.7154 40.3589 35.3154 40.4089 35.9524 40.3589C37.1024 40.2839 37.9024 39.9959 38.3024 39.8209C39.0241 39.5636 39.7058 39.2058 40.3274 38.7579C41.5774 37.8329 42.3404 36.5199 42.2654 34.7699C42.2274 33.8069 41.9154 32.8569 41.5274 31.9569L41.8654 31.4569C43.8404 28.5689 45.3654 25.3939 45.3654 25.3939C45.3654 25.3939 45.5154 26.3689 45.9784 27.9689C46.2164 28.7819 46.6914 29.6689 47.1164 30.5439C45.2664 32.0569 44.1034 33.8069 43.7034 34.9569C42.9654 37.0819 43.5404 38.0449 44.6284 38.2699C45.1164 38.3699 45.8164 38.1449 46.3414 37.9199C46.9914 37.7069 47.7794 37.3449 48.5044 36.8069C49.7544 35.8819 50.9544 34.5939 50.8924 32.8569C50.8544 32.0569 50.6424 31.2689 50.3544 30.5189C51.9294 29.8689 53.9674 29.4939 56.5544 29.8059C62.1174 30.4559 63.2174 33.9309 63.0044 35.3809C62.7914 36.8309 61.6294 37.6309 61.2414 37.8809C60.8534 38.1189 60.7284 38.2059 60.7664 38.3809C60.8164 38.6439 60.9914 38.6309 61.3294 38.5809C61.7924 38.5059 64.2544 37.3929 64.3544 34.7179C64.5044 31.2799 61.2414 27.5299 55.4544 27.5679L55.4554 27.5689ZM12.5514 42.0339C10.7134 44.0469 8.12643 44.8089 7.02643 44.1589C5.83843 43.4709 6.30143 40.5089 8.56443 38.3709C9.93943 37.0709 11.7274 35.8709 12.9024 35.1329L14.0404 34.4449C14.1154 34.3949 14.1654 34.3699 14.1654 34.3699C14.2534 34.3199 14.3534 34.2569 14.4534 34.1949C15.2914 37.2449 14.4914 39.9199 12.5534 42.0329L12.5514 42.0339ZM25.9914 32.8959C25.3534 34.4589 24.0034 38.4709 23.1914 38.2459C22.4914 38.0579 22.0664 35.0209 23.0534 32.0199C23.5534 30.5069 24.6164 28.7069 25.2414 28.0069C26.2544 26.8819 27.3544 26.5069 27.6294 26.9689C27.9544 27.5689 26.3914 31.9199 25.9914 32.8959ZM37.0794 38.1959C36.8044 38.3339 36.5544 38.4339 36.4414 38.3589C36.3534 38.3089 36.5544 38.1209 36.5544 38.1209C36.5544 38.1209 37.9424 36.6329 38.4924 35.9459L39.5804 34.5579V34.7079C39.5804 36.5079 37.8554 37.7079 37.0804 38.1959H37.0794ZM45.6294 36.2459C45.4294 36.0959 45.4544 35.6329 46.1294 34.1829C46.3924 33.6079 46.9924 32.6449 48.0294 31.7329C48.1544 32.1079 48.2294 32.4709 48.2174 32.8079C48.2044 35.0579 46.6044 35.8959 45.6294 36.2459Z" fill="#FF79BD"/>
</svg>
